<?xml version="1.0" encoding="UTF-8" standalone="no"?>
<!-- Created with Inkscape (http://www.inkscape.org/) -->
<svg
   xmlns:dc="http://purl.org/dc/elements/1.1/"
   xmlns:cc="http://web.resource.org/cc/"
   xmlns:rdf="http://www.w3.org/1999/02/22-rdf-syntax-ns#"
   xmlns:svg="http://www.w3.org/2000/svg"
   xmlns="http://www.w3.org/2000/svg"
   xmlns:sodipodi="http://sodipodi.sourceforge.net/DTD/sodipodi-0.dtd"
   xmlns:inkscape="http://www.inkscape.org/namespaces/inkscape"
   id="svg2"
   sodipodi:version="0.32"
   inkscape:version="0.45"
   width="744.09448"
   height="1052.3622"
   version="1.0"
   sodipodi:docbase="/home/sjoerd0/docs/images"
   sodipodi:docname="ship.svg"
   inkscape:output_extension="org.inkscape.output.svg.inkscape"
   sodipodi:modified="true">
  <metadata
     id="metadata7">
    <rdf:RDF>
      <cc:Work
         rdf:about="">
        <dc:format>image/svg+xml</dc:format>
        <dc:type
           rdf:resource="http://purl.org/dc/dcmitype/StillImage" />
      </cc:Work>
    </rdf:RDF>
  </metadata>
  <defs
     id="defs5" />
  <sodipodi:namedview
     inkscape:window-height="946"
     inkscape:window-width="1272"
     inkscape:pageshadow="2"
     inkscape:pageopacity="0.0"
     guidetolerance="10.0"
     gridtolerance="10.0"
     objecttolerance="10.0"
     borderopacity="1.0"
     bordercolor="#666666"
     pagecolor="#ffffff"
     id="base"
     showguides="true"
     inkscape:guide-bbox="true"
     inkscape:zoom="0.24609375"
     inkscape:cx="1407.0111"
     inkscape:cy="894.52268"
     inkscape:window-x="0"
     inkscape:window-y="0"
     inkscape:current-layer="layer2"
     width="744.09449px"
     height="1052.3622px" />
  <g
     inkscape:groupmode="layer"
     id="layer2"
     inkscape:label="Vector"
     style="display:inline">
    <path
       style="fill:#000000;fill-opacity:1;fill-rule:evenodd;stroke:#000000;stroke-width:0.70323569px;stroke-linecap:butt;stroke-linejoin:miter;stroke-opacity:1"
       d="M 408.2845,188.79656 C 407.7434,203.40645 406.67758,243.86087 405.11995,292.76555 L 323.43474,284.52451 L 318.88568,294.63352 C 352.8238,312.62482 381.41938,331.42727 403.16407,350.29901 C 401.36317,400.14502 399.13959,451.69875 396.57124,490.50663 C 363.83821,506.62784 315.10071,519.74973 247.66109,528.50332 C 300.76878,539.61181 348.19242,547.46673 390.85744,551.99579 C 386.12058,589.72966 381.20036,604.76266 372.83703,615.74849 C 274.70277,611.94389 194.16558,601.6348 93.586565,584.08092 C 91.060782,587.61702 87.521159,593.17903 87.521159,593.17903 L 96.113818,594.69538 C 124.40252,635.613 145.42737,663.38721 144.6151,679.03971 C 188.4699,681.77181 257.45417,720.02445 320.90748,739.518 C 280.61127,730.86476 255.79004,713.37473 225.42127,713.89378 C 166.31804,714.90412 118.84408,786.64611 17.812925,768.46051 C 127.13824,802.91336 155.5996,752.13785 222.89401,748.24249 C 238.52779,747.33756 255.92987,757.1664 279.72424,767.16387 C 245.49041,780.40433 228.49977,809.29727 156.21849,804.32552 C 230.98153,828.57295 267.85389,785.40841 308.77666,784.63493 C 329.05171,784.25645 339.03522,791.70814 352.24542,799.55674 C 320.0594,810.48763 318.16405,822.91289 292.36051,830.3233 C 266.04895,837.87936 244.86454,836.03688 245.22175,836.03709 C 269.86848,845.68148 304.87782,840.32423 319.52299,833.18013 C 334.16814,826.03624 345.9564,819.96724 361.67317,818.89572 C 377.38991,817.82406 397.02229,831.05264 417.38261,837.83906 C 437.02827,844.3876 466.75868,846.26945 505.26513,832.82851 C 543.12826,819.61224 568.48651,802.12229 606.70688,802.47953 C 648.52175,802.8668 656.35883,804.97117 691.00724,815.68714 C 651.35804,793.89802 612.42586,783.89259 590.99392,784.96461 C 569.56196,786.0362 547.06286,791.03922 527.41705,798.89739 C 508.59452,806.42644 482.22095,814.61372 453.02787,813.40162 C 506.71021,801.9192 555.75414,767.03554 603.784,767.4496 C 662.38211,767.95481 681.07038,776.29983 712.89545,784.63493 C 689.68719,773.98323 642.18764,747.86083 588.13702,747.2536 C 542.92403,746.75121 507.19615,774.70812 444.69896,777.99815 C 497.55887,762.53152 534.71362,733.20105 600.75131,733.10097 C 652.78483,733.02235 691.18255,744.71168 728.0589,757.34059 C 672.99703,729.05188 634.10085,707.85011 579.0389,707.34496 C 578.17857,707.3366 577.31921,707.33506 576.44572,707.34496 C 549.59006,707.64702 516.56219,716.21974 481.53093,725.01376 C 549.80315,687.00136 592.47064,617.84529 635.12196,594.18993 C 685.80899,566.07776 708.87378,563.86289 708.87378,563.86289 L 724.52078,526.98697 C 589.27655,573.00756 556.99767,614.81504 424.10731,616.67149 C 421.44887,600.24145 421.15625,581.36294 420.87686,554.67687 C 504.89727,560.75476 569.24255,552.40952 621.98023,529.00878 C 706.38518,491.55667 699.49452,383.22174 618.44205,314.32412 L 416.5695,293.93029 C 416.42149,267.65295 416.47622,242.72799 416.81123,221.16737 C 418.75082,218.84847 420.4379,217.1938 436.32603,217.84899 C 461.07865,218.8593 452.22083,242.65283 486.07994,242.33038 C 512.60058,242.07779 530.54561,224.15584 544.18479,223.65068 C 557.82398,223.14552 566.90535,227.43499 599.74041,235.01233 C 587.11156,227.43499 552.52537,213.0365 534.84491,213.54166 C 517.16451,214.04682 519.44088,218.59646 502.51808,219.10162 C 480.41707,219.75165 459.48365,196.94659 417.47053,193.8291 C 417.50378,192.88865 417.52327,191.86583 417.55842,190.95023 C 415.45989,190.95023 412.03507,190.40395 408.2845,188.79656 z M 417.29471,363.57259 C 457.48175,404.64201 463.43267,445.10026 419.47038,476.94736 C 418.77369,445.821 417.91574,405.58361 417.29471,363.57259 z M 118.59538,603.52978 C 182.49759,618.68444 249.93385,640.15313 359.8052,640.4057 C 310.04737,653.0346 217.5969,639.63733 140.81323,622.20947 C 140.81323,622.20947 129.7088,613.12773 118.59538,603.52978 z M 138.79143,631.06585 C 170.61625,644.70504 268.61456,664.38665 342.61988,672.97429 C 277.95994,675.50006 213.55602,662.38557 160.26209,650.00926 C 160.26209,650.00926 149.65229,640.91636 138.79143,631.06585 z "
       id="path3134" />
  </g>
</svg>
